# xmcd
#
# Track frame offsets:
#  150
#  24126
#  57566
#  90258
#  115256
#  163056
#  176538
#  198378
#  221591
#  251878
#  266478
#
# Disc length: 3873 seconds
#
# Revision: 0
# Processed by: cddbd v1.5.1PL2 Copyright (c) Steve Scherf et al.
# Submitted via: Collectorz.com_Music_Collector 6.10
#
DISCID=940f1f0b
DTITLE=Bruce Springsteen - Paris 96 [CD2)
DYEAR=1996
DGENRE=Acoustic
TTITLE0=Youngstown
TTITLE1=Sinaloa Cowboys
TTITLE2=The Line
TTITLE3=Balboa Park
TTITLE4=Across The Border
TTITLE5=Does This Bus Stop At 82nd Street
TTITLE6=This Hard Land
TTITLE7=Streets Of Philadelphia
TTITLE8=Galveston Bay
TTITLE9=My Best Was Never Good Enough
TTITLE10=The Promised Land
EXTD=
EXTT0=
EXTT1=
EXTT2=
EXTT3=
EXTT4=
EXTT5=
EXTT6=
EXTT7=
EXTT8=
EXTT9=
EXTT10=
PLAYORDER=
